<svg version="1.0" xmlns="http://www.w3.org/2000/svg"
 width="30.000000pt" height="30.000000pt" viewBox="0 0 100.000000 100.000000"
 preserveAspectRatio="xMidYMid meet">
<metadata>
</metadata>
<g transform="translate(0.000000,100.000000) scale(0.100000,-0.100000)"
fill="#000000" stroke="none">
<path d="M158 864 c-55 -29 -58 -46 -58 -364 0 -320 3 -335 60 -365 39 -20
133 -20 151 1 22 27 -2 48 -61 54 -82 9 -80 3 -80 310 0 214 3 270 14 286 13
17 31 19 227 24 183 4 213 7 222 22 8 12 7 21 -2 32 -19 23 -432 23 -473 0z"/>
<path d="M700 865 c-6 -8 -9 -23 -5 -35 5 -16 15 -20 51 -20 61 0 84 -24 84
-90 l0 -50 -285 0 c-262 0 -285 -1 -294 -18 -6 -11 -6 -24 0 -35 9 -15 36 -17
294 -17 l285 0 0 -187 c0 -104 -5 -195 -10 -203 -7 -12 -46 -16 -206 -20 -169
-4 -198 -7 -207 -22 -8 -12 -7 -21 2 -32 11 -14 42 -16 198 -16 207 0 240 7
273 62 19 31 20 50 20 321 0 316 -3 332 -60 362 -38 19 -124 20 -140 0z"/>
<path d="M497 578 c-14 -7 -17 -26 -17 -108 0 -91 -1 -98 -18 -93 -29 7 -91
-23 -104 -52 -32 -71 87 -128 156 -74 25 19 26 25 26 110 l0 89 48 -19 c56
-22 82 -14 82 27 0 51 -33 88 -98 110 -40 13 -64 17 -75 10z"/>
</g>
</svg>
